<?xml version="1.0" encoding="utf-8"?>
<!-- Generator: Adobe Illustrator 19.0.0, SVG Export Plug-In . SVG Version: 6.00 Build 0)  -->
<svg version="1.1" id="Layer_1" xmlns="http://www.w3.org/2000/svg" xmlns:xlink="http://www.w3.org/1999/xlink" x="0px" y="0px"
	 viewBox="-63 313 512 512" style="enable-background:new -63 313 512 512;" xml:space="preserve">
<style type="text/css">
	.st0{fill:#646464;}
</style>
<g>
	<g>
		<path class="st0" d="M337,377c-5.3,0-10.6,0.4-15.8,1.1c-29.9-40.7-77-65.1-128.2-65.1s-98.3,24.4-128.2,65.1
			c-5.2-0.8-10.5-1.1-15.8-1.1c-61.8,0-112,50.3-112,112s50.3,112,112,112c13.7,0,27.1-2.5,39.7-7.3c29,25.3,65.8,39.3,104.3,39.3
			c38.5,0,75.3-14.1,104.3-39.3c12.6,4.8,26,7.3,39.7,7.3c61.8,0,112-50.3,112-112S398.8,377,337,377z M337,569
			c-9.7,0-19.2-1.8-28.3-5.2l-18-6.9l-14.5,12.7C253,589.8,223.4,601,193,601s-60-11.2-83.3-31.5l-14.5-12.7l-18,6.9
			c-9,3.5-18.5,5.2-28.3,5.2c-44.1,0-80-35.9-80-80s35.9-80,80-80c3.8,0,7.5,0.3,11.3,0.8l19,2.8l11.4-15.5
			C114.9,364,152.2,345,193,345c40.8,0,78.1,19,102.4,52.1l11.4,15.5l19-2.8c3.7-0.5,7.4-0.8,11.2-0.8c44.1,0,80,35.9,80,80
			S381.1,569,337,569z M33,633c-17.7,0-32,14.3-32,32s14.3,32,32,32s32-14.3,32-32S50.7,633,33,633z M193,665c-17.7,0-32,14.3-32,32
			s14.3,32,32,32s32-14.3,32-32S210.7,665,193,665z M353,633c-17.7,0-32,14.3-32,32s14.3,32,32,32s32-14.3,32-32S370.7,633,353,633z
			 M289,761c-17.7,0-32,14.3-32,32s14.3,32,32,32s32-14.3,32-32S306.7,761,289,761z M97,761c-17.7,0-32,14.3-32,32s14.3,32,32,32
			s32-14.3,32-32S114.7,761,97,761z"/>
	</g>
</g>
</svg>
