<?xml version="1.0" encoding="utf-8"?>
<!-- Generator: Adobe Illustrator 19.0.0, SVG Export Plug-In . SVG Version: 6.00 Build 0)  -->
<svg version="1.1" id="Layer_1" xmlns="http://www.w3.org/2000/svg" xmlns:xlink="http://www.w3.org/1999/xlink" x="0px" y="0px"
	 viewBox="-63 313 512 512" style="enable-background:new -63 313 512 512;" xml:space="preserve">
<style type="text/css">
	.st0{fill:#646464;}
</style>
<g>
	<g>
		<path class="st0" d="M56,489h288c8.8,0,16-7.2,16-16s-7.2-16-16-16H56c-8.8,0-16,7.2-16,16S47.2,489,56,489z M344,521H56
			c-8.8,0-16,7.2-16,16s7.2,16,16,16h288c8.8,0,16-7.2,16-16S352.8,521,344,521z M344,585H56c-8.8,0-16,7.2-16,16s7.2,16,16,16h288
			c8.8,0,16-7.2,16-16S352.8,585,344,585z M344,649H56c-8.8,0-16,7.2-16,16s7.2,16,16,16h288c8.8,0,16-7.2,16-16S352.8,649,344,649z
			"/>
	</g>
</g>
</svg>
