<?xml version="1.0" encoding="utf-8"?>
<!-- Generator: Adobe Illustrator 19.0.0, SVG Export Plug-In . SVG Version: 6.00 Build 0)  -->
<svg version="1.1" id="Layer_1" xmlns="http://www.w3.org/2000/svg" xmlns:xlink="http://www.w3.org/1999/xlink" x="0px" y="0px"
	 viewBox="-15 361 416 416" style="enable-background:new -15 361 416 416;" xml:space="preserve">
<style type="text/css">
	.st0{fill:#646464;}
</style>
<g>
	<g>
		<path class="st0" d="M193,457c-61.8,0-112,50.3-112,112s50.3,112,112,112s112-50.3,112-112S254.8,457,193,457z M193,649
			c-44.2,0-80-35.8-80-80s35.8-80,80-80s80,35.8,80,80S237.2,649,193,649z M193,425c8.8,0,16-7.2,16-16v-32c0-8.8-7.2-16-16-16
			s-16,7.2-16,16v32C177,417.8,184.2,425,193,425z M193,713c-8.8,0-16,7.2-16,16v32c0,8.8,7.2,16,16,16s16-7.2,16-16v-32
			C209,720.2,201.8,713,193,713z M317.4,467.2l22.6-22.6c6.3-6.3,6.3-16.4,0-22.6s-16.4-6.3-22.6,0l-22.6,22.6
			c-6.3,6.3-6.3,16.4,0,22.6C301.1,473.4,311.2,473.4,317.4,467.2z M68.6,670.8l-22.6,22.6c-6.3,6.2-6.3,16.4,0,22.6
			s16.4,6.3,22.6,0l22.6-22.6c6.3-6.3,6.3-16.4,0-22.6C84.9,664.6,74.8,664.6,68.6,670.8z M49,569c0-8.8-7.2-16-16-16H1
			c-8.8,0-16,7.2-16,16s7.2,16,16,16h32C41.8,585,49,577.8,49,569z M385,553h-32c-8.8,0-16,7.2-16,16s7.2,16,16,16h32
			c8.8,0,16-7.2,16-16S393.8,553,385,553z M68.5,467.2c6.3,6.3,16.4,6.3,22.6,0c6.3-6.3,6.3-16.4,0-22.6l-22.6-22.6
			c-6.3-6.3-16.4-6.3-22.6,0c-6.3,6.3-6.3,16.4,0,22.6L68.5,467.2z M317.5,670.8c-6.3-6.3-16.4-6.3-22.6,0c-6.3,6.3-6.3,16.4,0,22.6
			l22.6,22.6c6.2,6.3,16.4,6.3,22.6,0s6.3-16.4,0-22.6L317.5,670.8z"/>
	</g>
</g>
</svg>
