<?xml version="1.0" encoding="utf-8"?>
<!-- Generator: Adobe Illustrator 19.0.0, SVG Export Plug-In . SVG Version: 6.00 Build 0)  -->
<svg version="1.1" id="Layer_1" xmlns="http://www.w3.org/2000/svg" xmlns:xlink="http://www.w3.org/1999/xlink" x="0px" y="0px"
	 viewBox="-63 313 512 512" style="enable-background:new -63 313 512 512;" xml:space="preserve">
<style type="text/css">
	.st0{fill:#646464;}
</style>
<path class="st0" d="M449,500.4c0-49.2-40-89.1-89.2-89.1c-2.4,0-4.8,0.1-7.1,0.3c-23.1-28.9-58-46-95.7-46
	c-37.7,0-72.6,17.1-95.7,46c-2.4-0.2-4.8-0.3-7.2-0.3c-49.1,0-89.1,40-89.1,89.1c0,5.1,0.7,10.1,1.5,15c-0.5,0.7-1.2,1.4-1.7,2.1
	c-5.2-0.8-10.5-1.1-15.8-1.1c-61.8,0-112,50.2-112,112c0,61.8,50.3,112,112,112c13.7,0,27.1-2.5,39.7-7.3
	c29,25.3,65.8,39.3,104.3,39.3c38.5,0,75.3-14.1,104.3-39.3c12.6,4.8,26,7.3,39.7,7.3c61.8,0,112-50.2,112-112
	c0-25.7-9-49.1-23.7-68C439.9,544.5,449,523.6,449,500.4z M337,708.4c-17.1,0-32.9-5.5-45.9-14.7c-23.5,28.3-58.4,46.7-98.1,46.7
	c-39.6,0-74.6-18.4-98.1-46.7c-13,9.2-28.8,14.7-45.9,14.7c-44.2,0-80-35.8-80-80s35.8-80,80-80c10.8,0,21.1,2.2,30.4,6.1
	c0.6-1.1,1.3-2,1.8-3c5.6-10.3,12.6-19.7,20.7-28c23.1-23.9,55.2-39,91.1-39c49.7,0,92.3,28.7,113.5,70.1c5.6-2.3,11.7-3.8,17.9-4.8
	l12.6-1.3c12.3,0,23.9,3,34.3,8c11.3,5.4,21,13.4,28.6,23.2c10.5,13.5,17,30.4,17,48.8C417,672.6,381.2,708.4,337,708.4z M402.6,538
	c-18.5-13.5-41-21.6-65.6-21.6c-5.3,0-10.6,0.4-15.8,1.1c-29.9-40.7-77-65.1-128.2-65.1c-34.1,0-66.3,11-92.9,30.3
	c7.5-22.9,28.7-39.5,54.1-39.5c7.8,0,15.1,1.6,21.8,4.3c15.2-29.6,45.6-50,81.1-50s66,20.5,81.1,50c6.7-2.8,14.1-4.3,21.7-4.3
	c31.6,0,57.2,25.6,57.2,57.1C417,514.9,411.4,528,402.6,538z"/>
</svg>
