<?xml version="1.0" encoding="utf-8"?>
<!-- Generator: Adobe Illustrator 19.0.0, SVG Export Plug-In . SVG Version: 6.00 Build 0)  -->
<svg version="1.1" id="Layer_1" xmlns="http://www.w3.org/2000/svg" xmlns:xlink="http://www.w3.org/1999/xlink" x="0px" y="0px"
	 viewBox="-63 313 512 512" style="enable-background:new -63 313 512 512;" xml:space="preserve">
<style type="text/css">
	.st0{fill:#646464;}
</style>
<path class="st0" d="M337,473c-5.3,0-10.6,0.4-15.8,1.1c-29.9-40.7-77-65.1-128.2-65.1s-98.3,24.4-128.2,65.1
	c-5.2-0.8-10.5-1.1-15.8-1.1c-61.8,0-112,50.3-112,112s50.3,112,112,112c13.7,0,27.1-2.5,39.7-7.3C117.7,715,154.5,729,193,729
	s75.3-14.1,104.3-39.3c12.6,4.8,26,7.3,39.7,7.3c61.8,0,112-50.3,112-112S398.8,473,337,473z M337,665c-17.1,0-32.9-5.5-45.9-14.7
	C267.6,678.6,232.6,697,193,697s-74.6-18.4-98.1-46.7C81.9,659.5,66.1,665,49,665c-44.2,0-80-35.8-80-80s35.8-80,80-80
	c10.8,0,21.1,2.2,30.4,6.1C100.7,469.7,143.3,441,193,441s92.3,28.7,113.5,70.1c9.4-3.9,19.7-6.1,30.5-6.1c44.2,0,80,35.8,80,80
	S381.2,665,337,665z"/>
</svg>
