<?xml version="1.0" encoding="utf-8"?>
<!-- Generator: Adobe Illustrator 19.0.0, SVG Export Plug-In . SVG Version: 6.00 Build 0)  -->
<svg version="1.1" id="Layer_1" xmlns="http://www.w3.org/2000/svg" xmlns:xlink="http://www.w3.org/1999/xlink" x="0px" y="0px"
	 viewBox="-63 313 512 480" style="enable-background:new -63 313 512 480;" xml:space="preserve">
<style type="text/css">
	.st0{fill:#646464;}
</style>
<path class="st0" d="M337,377c-5.3,0-10.6,0.4-15.8,1.1c-29.9-40.7-77-65.1-128.2-65.1s-98.3,24.4-128.2,65.1
	c-5.2-0.8-10.5-1.1-15.8-1.1c-61.8,0-112,50.3-112,112s50.3,112,112,112c13.7,0,27.1-2.5,39.7-7.3c21.5,18.8,47.4,31.3,75.1,36.5
	L129,665l32,32l-32,96l96-96l-32-32l11-33c34.5-2.4,67.1-15.5,93.3-38.3c12.6,4.8,26,7.3,39.7,7.3c61.8,0,112-50.3,112-112
	S398.8,377,337,377z M337,569c-17.1,0-32.9-5.5-45.9-14.7c-18.9,22.8-45.6,38.6-75.9,44.1L193,601c-39.6,0-74.6-18.4-98.1-46.7
	C81.9,563.5,66.1,569,49,569c-44.2,0-80-35.8-80-80s35.8-80,80-80c10.8,0,21.1,2.2,30.4,6.1C100.7,373.7,143.3,345,193,345
	s92.3,28.7,113.5,70.1c9.4-3.9,19.7-6.1,30.5-6.1c44.2,0,80,35.8,80,80S381.2,569,337,569z"/>
</svg>
