<?xml version="1.0" encoding="utf-8"?>
<!-- Generator: Adobe Illustrator 19.0.0, SVG Export Plug-In . SVG Version: 6.00 Build 0)  -->
<svg version="1.1" id="Layer_1" xmlns="http://www.w3.org/2000/svg" xmlns:xlink="http://www.w3.org/1999/xlink" x="0px" y="0px"
	 viewBox="-63 313 512 512" style="enable-background:new -63 313 512 512;" xml:space="preserve">
<style type="text/css">
	.st0{fill:#646464;}
</style>
<g>
	<g>
		<path class="st0" d="M145,377c8.8,0,16-7.2,16-16v-32c0-8.8-7.2-16-16-16s-16,7.2-16,16v32C129,369.8,136.2,377,145,377z
			 M269.4,419.2l22.6-22.6c6.2-6.3,6.2-16.4,0-22.6c-6.3-6.3-16.4-6.3-22.6,0l-22.6,22.6c-6.3,6.3-6.3,16.4,0,22.6
			C253.1,425.4,263.2,425.4,269.4,419.2z M-47,537h32c8.8,0,16-7.2,16-16s-7.2-16-16-16h-32c-8.8,0-16,7.2-16,16S-55.8,537-47,537z
			 M289,521c0,8.8,7.2,16,16,16h32c8.8,0,16-7.2,16-16s-7.2-16-16-16h-32C296.2,505,289,512.2,289,521z M20.5,419.2
			c6.3,6.3,16.4,6.3,22.6,0c6.3-6.3,6.3-16.4,0-22.6l-22.6-22.6c-6.3-6.3-16.4-6.3-22.6,0c-6.3,6.3-6.3,16.4,0,22.6L20.5,419.2z
			 M337,569c-5.3,0-10.6,0.4-15.8,1.1c-16.8-22.9-39.1-40.3-64.5-51.5C255.5,458,205.9,409,145,409c-61.8,0-112,50.3-112,112
			c0,17.4,4.3,33.8,11.5,48.4C-15.1,571.9-63,620.8-63,681c0,61.8,50.3,112,112,112c13.7,0,27.1-2.5,39.7-7.3
			c29,25.3,65.8,39.3,104.3,39.3c38.5,0,75.3-14.1,104.3-39.3c12.6,4.8,26,7.3,39.7,7.3c61.8,0,112-50.3,112-112S398.8,569,337,569z
			 M145,441c39.8,0,72.6,29.2,78.7,67.3c-10-2-20.2-3.3-30.7-3.3c-45.9,0-88.5,19.8-118.4,53.3C68.7,547.1,65,534.5,65,521
			C65,476.8,100.8,441,145,441z M337,761c-17.1,0-32.9-5.5-45.9-14.7C267.6,774.6,232.6,793,193,793c-39.6,0-74.6-18.4-98.1-46.7
			C81.9,755.5,66.1,761,49,761c-44.2,0-80-35.8-80-80s35.8-80,80-80c7.8,0,15.1,1.5,22.1,3.5c2.8,0.8,5.7,1.4,8.3,2.5
			c4.4-8.6,9.9-16.4,16-23.8c23.4-28.1,58.1-46.3,97.6-46.3c10.1,0,19.8,1.5,29.3,3.7c10.6,2.5,20.5,6.3,29.8,11.3
			c23.3,12.4,42.4,31.5,54.5,55.1c9.4-3.9,19.7-6.1,30.5-6.1c44.2,0,80,35.8,80,80S381.2,761,337,761z"/>
	</g>
</g>
</svg>
